<?xml version="1.0" encoding="UTF-8" standalone="no" ?>
<!DOCTYPE svg PUBLIC "-//W3C//DTD SVG 1.1//EN" "http://www.w3.org/Graphics/SVG/1.1/DTD/svg11.dtd">
<svg xmlns="http://www.w3.org/2000/svg" xmlns:xlink="http://www.w3.org/1999/xlink" version="1.1" width="779" height="87" viewBox="0 0 779 87" xml:space="preserve">
<desc>Created with Fabric.js 4.6.0</desc>
<defs>
</defs>
<g transform="matrix(1 0 0 0.99 636.48 107.33)" id="Y7HZWWB1Wi689K_UcVGx-"  >
<path style="stroke: none; stroke-width: 1; stroke-dasharray: none; stroke-linecap: butt; stroke-dashoffset: 0; stroke-linejoin: miter; stroke-miterlimit: 4; fill: rgb(255,255,255); fill-rule: nonzero; opacity: 1;" vector-effect="non-scaling-stroke"  transform=" translate(0, 0)" d="M -582.19 -90.48015 L -582.19 -106.08014 L -635.47 -106.08014 L -635.47 -90.48015 L -618.07 -90.48015 L -618.07 -26.040149999999997 L -599.59 -26.040149999999997 L -599.59 -90.48015 z M -527.235 -106.08014 L -572.4747 -106.08014 L -572.4747 -26.040149999999997 L -527.235 -26.040149999999997 L -527.235 -41.64015 L -553.9947 -41.64015 L -553.9947 -59.40015 L -528.555 -59.40015 L -528.555 -75.00014999999999 L -553.9947 -75.00014999999999 L -553.9947 -90.48015 L -527.235 -90.48015 z M -454.4 -49.80015 C -461.47999999999996 -42.84015 -467.96 -41.52015 -472.76 -41.52015 C -482.59999999999997 -41.52015 -488.36 -46.56015 -490.03999999999996 -48.24015 C -493.64 -51.72015 -496.99999999999994 -57.60015 -496.99999999999994 -65.88015 C -496.99999999999994 -73.56015 -493.87999999999994 -80.04015 -489.43999999999994 -84.36015 C -485.23999999999995 -88.44015 -479.8399999999999 -90.60015 -473.11999999999995 -90.60015 C -464.59999999999997 -90.60015 -458.47999999999996 -86.40015 -454.4 -82.08015 L -454.4 -103.44014 C -462.2 -106.80014 -468.32 -107.88014 -473.59999999999997 -107.88014 C -486.08 -107.88014 -496.4 -103.20014 -503.47999999999996 -96.36015 C -510.67999999999995 -89.40015000000001 -515.9599999999999 -78.84015000000001 -515.9599999999999 -66.24015 C -515.9599999999999 -53.40015 -510.67999999999995 -42.84015 -503.4799999999999 -35.88015 C -496.7599999999999 -29.28015 -486.7999999999999 -24.24015 -472.0399999999999 -24.24015 C -467.2399999999999 -24.24015 -461.4799999999999 -24.96015 -454.3999999999999 -28.56015 z M -421.104 -106.08014 L -439.584 -106.08014 L -439.584 -26.040149999999997 L -421.104 -26.040149999999997 L -421.104 -60.00015 L -389.18399999999997 -60.00015 L -389.18399999999997 -26.040149999999997 L -370.70399999999995 -26.040149999999997 L -370.70399999999995 -106.08014 L -389.18399999999997 -106.08014 L -389.18399999999997 -75.60015 L -421.104 -75.60015 z M -334.737 -26.04015 L -334.737 -77.88015 L -291.297 -26.040149999999997 L -275.21700000000004 -26.040149999999997 L -275.21700000000004 -106.08014 L -293.69700000000006 -106.08014 L -293.69700000000006 -54.48015 L -337.13700000000006 -106.08014 L -353.21700000000004 -106.08014 L -353.21700000000004 -26.040149999999997 z M -217.749 -107.88015 C -233.709 -107.88015 -243.66899999999998 -101.52015 -249.069 -96.12016 C -256.269 -88.92016 -261.429 -77.28016 -261.429 -65.76016 C -261.429 -54.00016 -256.62899999999996 -43.20016 -248.94899999999998 -36.000159999999994 C -242.94899999999998 -30.240159999999996 -232.749 -24.240159999999996 -217.749 -24.240159999999996 C -204.309 -24.240159999999996 -194.22899999999998 -28.800159999999995 -186.789 -36.000159999999994 C -178.149 -44.40015999999999 -174.309 -55.320159999999994 -174.309 -66.00016 C -174.309 -78.36016 -179.22899999999998 -88.92016 -186.789 -96.24015999999999 C -194.82899999999998 -104.04014999999998 -205.26899999999998 -107.88014999999999 -217.749 -107.88014999999999 z M -217.869 -90.84015 C -210.549 -90.84015 -204.189 -87.84015 -200.22899999999998 -84.00014999999999 C -196.629 -80.40015 -193.26899999999998 -74.28014999999999 -193.26899999999998 -66.00014999999999 C -193.26899999999998 -56.76014999999999 -197.10899999999998 -51.12014999999999 -200.22899999999998 -48.120149999999995 C -204.069 -44.28014999999999 -209.82899999999998 -41.28014999999999 -217.98899999999998 -41.28014999999999 C -224.22899999999998 -41.28014999999999 -229.98899999999998 -42.96014999999999 -235.14899999999997 -47.88014999999999 C -240.06899999999996 -52.68014999999999 -242.46899999999997 -58.56014999999999 -242.46899999999997 -65.88014999999999 C -242.46899999999997 -74.76014999999998 -238.86899999999997 -80.64014999999999 -235.38899999999995 -84.00014999999999 C -231.06899999999996 -88.32014999999998 -224.82899999999995 -90.84015 -217.86899999999994 -90.84015 z M -160.561 -106.08014 L -160.561 -26.040149999999997 L -117.24100000000001 -26.040149999999997 L -117.24100000000001 -41.64015 L -142.08100000000002 -41.64015 L -142.08100000000002 -106.08014 z M -69.39 -107.88015 C -85.35 -107.88015 -95.31 -101.52015 -100.71000000000001 -96.12016 C -107.91000000000001 -88.92016 -113.07000000000001 -77.28016 -113.07000000000001 -65.76016 C -113.07000000000001 -54.00016 -108.27000000000001 -43.20016 -100.59 -36.000159999999994 C -94.59 -30.240159999999996 -84.39 -24.240159999999996 -69.39 -24.240159999999996 C -55.95 -24.240159999999996 -45.870000000000005 -28.800159999999995 -38.43 -36.000159999999994 C -29.79 -44.40015999999999 -25.95 -55.320159999999994 -25.95 -66.00016 C -25.95 -78.36016 -30.869999999999997 -88.92016 -38.43 -96.24015999999999 C -46.47 -104.04014999999998 -56.91 -107.88014999999999 -69.39 -107.88014999999999 z M -69.51 -90.84015 C -62.190000000000005 -90.84015 -55.830000000000005 -87.84015 -51.870000000000005 -84.00014999999999 C -48.27 -80.40015 -44.910000000000004 -74.28014999999999 -44.910000000000004 -66.00014999999999 C -44.910000000000004 -56.76014999999999 -48.75 -51.12014999999999 -51.870000000000005 -48.120149999999995 C -55.71000000000001 -44.28014999999999 -61.470000000000006 -41.28014999999999 -69.63000000000001 -41.28014999999999 C -75.87 -41.28014999999999 -81.63000000000001 -42.96014999999999 -86.79 -47.88014999999999 C -91.71000000000001 -52.68014999999999 -94.11000000000001 -58.56014999999999 -94.11000000000001 -65.88014999999999 C -94.11000000000001 -74.76014999999998 -90.51000000000002 -80.64014999999999 -87.03000000000002 -84.00014999999999 C -82.71000000000001 -88.32014999999998 -76.47000000000001 -90.84015 -69.51000000000002 -90.84015 z M 26.319 -54.84015 L 45.638999999999996 -54.84015 C 44.07899999999999 -48.96015 40.479 -45.84015 39.879 -45.360150000000004 C 38.079 -43.80015 33.879 -41.040150000000004 25.958999999999996 -41.040150000000004 C 19.838999999999995 -41.040150000000004 14.438999999999997 -42.48015 9.758999999999997 -47.280150000000006 C 6.398999999999997 -50.640150000000006 3.038999999999997 -56.52015000000001 3.038999999999997 -65.64015 C 3.038999999999997 -73.08015 5.4389999999999965 -79.92015 9.878999999999998 -84.60015000000001 C 13.718999999999998 -88.68015000000001 19.119 -91.08015000000002 26.438999999999997 -91.08015000000002 C 30.998999999999995 -91.08015000000002 35.07899999999999 -89.88015000000001 38.678999999999995 -87.24015000000001 C 41.79899999999999 -84.96015000000001 44.199 -81.72015000000002 45.75899999999999 -78.60015000000001 L 62.43899999999999 -87.60015000000001 C 59.55899999999999 -92.64015000000002 54.87899999999999 -98.28014000000002 49.47899999999999 -101.88014000000001 C 42.038999999999994 -106.80014000000001 33.638999999999996 -107.88014000000001 27.03899999999999 -107.88014000000001 C 17.55899999999999 -107.88014000000001 5.438999999999989 -106.44014000000001 -4.4010000000000105 -96.24015000000001 C -11.12100000000001 -89.40015000000001 -15.92100000000001 -78.96015000000001 -15.92100000000001 -65.88015000000001 C -15.92100000000001 -49.920150000000014 -8.84100000000001 -40.200150000000015 -4.16100000000001 -35.40015000000001 C 5.198999999999989 -25.80015000000001 15.51899999999999 -24.24015000000001 25.118999999999993 -24.24015000000001 C 34.59899999999999 -24.24015000000001 44.79899999999999 -25.92015000000001 53.67899999999999 -35.16015000000001 C 62.55899999999999 -44.40015000000001 66.03899999999999 -59.16015000000001 66.03899999999999 -68.88015000000001 L 66.03899999999999 -69.72015000000002 L 26.31899999999999 -69.72015000000002 z M 94.672 -26.04015 L 113.152 -26.04015 L 113.152 -63.360150000000004 L 141.832 -106.08014 L 119.99199999999999 -106.08014 L 103.91199999999999 -81.24015 L 87.832 -106.08014 L 65.99199999999999 -106.08014 L 94.672 -63.36015 z M -627.67 25.92015 L -627.67 105.96015 L -601.75 105.96015 C -595.03 105.96015 -581.23 105.12015 -570.19 93.96015 C -563.59 87.36015 -559.2700000000001 78.24015 -559.2700000000001 65.64015 C -559.2700000000001 53.16015 -563.7100000000002 43.80015 -570.7900000000001 36.960150000000006 C -580.6300000000001 27.480150000000005 -591.7900000000001 25.920150000000007 -602.35 25.920150000000007 z M -609.19 41.52015 L -604.2700000000001 41.52015 C -598.6300000000001 41.52015 -590.83 42.360150000000004 -584.83 48.360150000000004 C -581.71 51.48015 -578.23 57.000150000000005 -578.23 65.64015 C -578.23 74.52015 -581.71 81.36015 -586.03 84.96015 C -592.03 90.00015 -600.43 90.36015 -604.27 90.36015 L -609.1899999999999 90.36015 z M -545.5216 25.92015 L -545.5216 105.96015 L -527.042 105.96015 L -527.042 74.40015 L -505.442 105.96015 L -482.882 105.96015 L -507.482 73.20015000000001 C -503.04200000000003 72.12015000000001 -499.08200000000005 69.72015 -496.322 67.08015 C -491.162 62.040150000000004 -490.082 55.80015 -490.082 50.76015 C -490.082 41.88015 -493.682 36.12015 -497.042 32.88015 C -500.88199999999995 29.28015 -507.24199999999996 25.92015 -517.442 25.92015 z M -527.042 40.32015 L -522.722 40.32015 C -520.322 40.32015 -515.5219999999999 40.56015 -512.5219999999999 42.84015 C -510.96199999999993 44.040150000000004 -508.8019999999999 46.44015 -508.8019999999999 51.000150000000005 C -508.8019999999999 54.960150000000006 -510.4819999999999 57.48015000000001 -511.8019999999999 58.80015 C -514.9219999999999 61.92015 -519.4819999999999 62.28015 -522.8419999999999 62.28015 L -527.0419999999999 62.28015 z M -472.271 25.92015 L -472.271 105.96015 L -453.791 105.96015 L -453.791 25.920149999999992 z M -444.231 25.92015 L -410.271 105.96015 L -397.791 105.96015 L -363.831 25.920149999999992 L -383.75100000000003 25.920149999999992 L -404.03100000000006 77.16014999999999 L -424.31100000000004 25.920149999999985 z M -309.383 25.92015 L -354.623 25.92015 L -354.623 105.96015 L -309.383 105.96015 L -309.383 90.36015 L -336.143 90.36015 L -336.143 72.60015 L -310.703 72.60015 L -310.703 57.00015 L -336.143 57.00015 L -336.143 41.52015 L -309.383 41.52015 z M -275.909 105.96015 L -275.909 54.120149999999995 L -232.469 105.96015 L -216.389 105.96015 L -216.389 25.920149999999992 L -234.869 25.920149999999992 L -234.869 77.52015 L -278.30899999999997 25.92015 L -294.38899999999995 25.92015 L -294.38899999999995 105.96015 z M -170.873 25.92015 L -170.873 105.96015 L -140.753 105.96015 C -135.833 105.96015 -126.23299999999999 105.48015 -119.63299999999998 99.12015 C -116.51299999999998 96.00014999999999 -113.39299999999999 90.96015 -113.39299999999999 82.92014999999999 C -113.39299999999999 75.84015 -115.91299999999998 71.28014999999999 -118.55299999999998 68.64014999999999 C -121.43299999999998 65.76015 -125.75299999999999 63.840149999999994 -129.593 63.24014999999999 C -127.67299999999999 62.40014999999999 -124.91299999999998 60.72014999999999 -122.87299999999999 57.36014999999999 C -120.713 53.88014999999999 -120.23299999999999 50.28014999999999 -120.23299999999999 47.16014999999999 C -120.23299999999999 43.68014999999999 -120.83299999999998 36.960149999999985 -125.993 32.04014999999999 C -132.233 26.16014999999999 -142.07299999999998 25.92014999999999 -146.393 25.92014999999999 z M -152.633 40.32015 L -149.75300000000001 40.32015 C -146.393 40.32015 -142.793 40.32015 -140.15300000000002 42.36015 C -138.71300000000002 43.440149999999996 -137.03300000000002 45.60015 -137.03300000000002 49.080149999999996 C -137.03300000000002 52.56014999999999 -138.59300000000002 54.96015 -140.27300000000002 56.160149999999994 C -142.913 58.080149999999996 -147.11300000000003 58.440149999999996 -149.63300000000004 58.440149999999996 L -152.63300000000004 58.440149999999996 z M -152.633 72.12015 L -147.59300000000002 72.12015 C -143.87300000000002 72.12015 -137.633 72.12015 -134.39300000000003 75.12015 C -133.19300000000004 76.20015 -131.87300000000002 78.36014999999999 -131.87300000000002 81.60015 C -131.87300000000002 84.48015 -132.83300000000003 86.76015 -134.513 88.32015 C -137.87300000000002 91.44015 -143.513 91.56015 -148.193 91.56015 L -152.633 91.56015 z M -85.68 105.96015 L -67.2 105.96015 L -67.2 68.64015 L -38.52 25.920150000000007 L -60.36 25.920150000000007 L -76.44 50.76015000000001 L -92.52 25.92015000000001 L -114.36 25.92015000000001 L -85.68 68.64015 z M 16.708 25.92015 L -1.772000000000002 25.92015 L -1.772000000000002 105.96015 L 16.708 105.96015 L 16.708 72.00014999999999 L 48.628 72.00014999999999 L 48.628 105.96015 L 67.108 105.96015 L 67.108 25.920149999999992 L 48.628 25.920149999999992 L 48.628 56.40015 L 16.708 56.40015 z M 152.276 25.92015 L 133.79600000000002 25.92015 L 133.79600000000002 72.84015 C 133.79600000000002 76.32015 133.556 82.20015 129.59600000000003 86.28014999999999 C 126.35600000000004 89.76015 121.91600000000003 90.48015 118.43600000000004 90.48015 C 114.95600000000003 90.48015 110.51600000000003 89.76015 107.27600000000004 86.28014999999999 C 103.31600000000005 82.20015 103.07600000000004 76.32014999999998 103.07600000000004 72.84015 L 103.07600000000004 25.920149999999992 L 84.59600000000003 25.920149999999992 L 84.59600000000003 73.32014999999998 C 84.59600000000003 81.00014999999999 85.55600000000003 90.48014999999998 93.47600000000003 98.64014999999998 C 101.15600000000003 106.56014999999998 110.03600000000003 107.76014999999998 118.43600000000004 107.76014999999998 C 126.83600000000004 107.76014999999998 135.71600000000004 106.56014999999998 143.39600000000004 98.64014999999998 C 151.31600000000003 90.48014999999998 152.27600000000004 81.00014999999998 152.27600000000004 73.32014999999998 z M 184.551 105.96015 L 190.911 58.20015 L 210.951 105.96015 L 217.43099999999998 105.96015 L 237.47099999999998 58.20015 L 243.831 105.96015 L 262.311 105.96015 L 249.47099999999998 25.920149999999992 L 234.111 25.920149999999992 L 214.19099999999997 73.80015 L 194.27099999999996 25.92015 L 178.91099999999994 25.92015 L 166.07099999999994 105.96015 z M 329.12 105.96015 L 348.32 105.96015 L 316.76 25.920149999999992 L 299.84 25.920149999999992 L 267.55999999999995 105.96015 L 286.75999999999993 105.96015 L 292.87999999999994 90.84015 L 323.11999999999995 90.84015 z M 298.28 76.68015 L 308.23999999999995 49.80015 L 318.0799999999999 76.68015 z M 375.77 105.96015 L 375.77 54.120149999999995 L 419.21 105.96015 L 435.28999999999996 105.96015 L 435.28999999999996 25.920149999999992 L 416.80999999999995 25.920149999999992 L 416.80999999999995 77.52015 L 373.36999999999995 25.92015 L 357.29099999999994 25.92015 L 357.29099999999994 105.96015 z M 453.16 25.92015 L 453.16 105.96015 L 471.64000000000004 105.96015 L 471.64000000000004 25.920149999999992 z M 534.96 41.52015 L 534.96 25.92015 L 481.68000000000006 25.92015 L 481.68000000000006 41.52015 L 499.08000000000004 41.52015 L 499.08000000000004 105.96015 L 517.5600000000001 105.96015 L 517.5600000000001 41.52015 z M 568.34 105.96015 L 586.82 105.96015 L 586.82 68.64015 L 615.5 25.920150000000007 L 593.66 25.920150000000007 L 577.5799999999999 50.76015000000001 L 561.4999999999999 25.92015000000001 L 539.6599999999999 25.92015000000001 L 568.3399999999998 68.64015 z M 613.63 96.96015 C 613.63 103.08015 618.43 107.88015 624.55 107.88015 C 630.67 107.88015 635.4699999999999 103.08015 635.4699999999999 96.96015 C 635.4699999999999 90.84015 630.67 86.04015 624.55 86.04015 C 618.43 86.04015 613.63 90.84015 613.63 96.96015 z" stroke-linecap="round" />
</g>
</svg>