<svg width="1280" height="224" viewBox="0 0 1280 224" fill="none" xmlns="http://www.w3.org/2000/svg">
<g filter="url(#filter0_d_180_21)">
<path d="M58.24 17.4677V1.86771H4.96V17.4677H22.36V81.9077H40.84V17.4677H58.24ZM113.195 1.86771H67.9553V81.9077H113.195V66.3077H86.4353V48.5477H111.875V32.9477H86.4353V17.4677H113.195V1.86771ZM186.03 58.1477C178.95 65.1077 172.47 66.4277 167.67 66.4277C157.83 66.4277 152.07 61.3877 150.39 59.7077C146.79 56.2277 143.43 50.3477 143.43 42.0677C143.43 34.3877 146.55 27.9077 150.99 23.5877C155.19 19.5077 160.59 17.3477 167.31 17.3477C175.83 17.3477 181.95 21.5477 186.03 25.8677V4.50771C178.23 1.14771 172.11 0.0677099 166.83 0.0677099C154.35 0.0677099 144.03 4.74771 136.95 11.5877C129.75 18.5477 124.47 29.1077 124.47 41.7077C124.47 54.5477 129.75 65.1077 136.95 72.0677C143.67 78.6677 153.63 83.7077 168.39 83.7077C173.19 83.7077 178.95 82.9877 186.03 79.3877V58.1477ZM219.326 1.86771H200.846V81.9077H219.326V47.9477H251.246V81.9077H269.726V1.86771H251.246V32.3477H219.326V1.86771ZM305.693 81.9077V30.0677L349.133 81.9077H365.213V1.86771H346.733V53.4677L303.293 1.86771H287.213V81.9077H305.693ZM422.681 0.0677099C406.721 0.0677099 396.761 6.42771 391.361 11.8277C384.161 19.0277 379.001 30.6677 379.001 42.1877C379.001 53.9477 383.801 64.7477 391.481 71.9477C397.481 77.7077 407.681 83.7077 422.681 83.7077C436.121 83.7077 446.201 79.1477 453.641 71.9477C462.281 63.5477 466.121 52.6277 466.121 41.9477C466.121 29.5877 461.201 19.0277 453.641 11.7077C445.601 3.90771 435.161 0.0677099 422.681 0.0677099ZM422.561 17.1077C429.881 17.1077 436.241 20.1077 440.201 23.9477C443.801 27.5477 447.161 33.6677 447.161 41.9477C447.161 51.1877 443.321 56.8277 440.201 59.8277C436.361 63.6677 430.601 66.6677 422.441 66.6677C416.201 66.6677 410.441 64.9877 405.281 60.0677C400.361 55.2677 397.961 49.3877 397.961 42.0677C397.961 33.1877 401.561 27.3077 405.041 23.9477C409.361 19.6277 415.601 17.1077 422.561 17.1077ZM479.869 1.86771V81.9077H523.189V66.3077H498.349V1.86771H479.869ZM571.04 0.0677099C555.08 0.0677099 545.12 6.42771 539.72 11.8277C532.52 19.0277 527.36 30.6677 527.36 42.1877C527.36 53.9477 532.16 64.7477 539.84 71.9477C545.84 77.7077 556.04 83.7077 571.04 83.7077C584.48 83.7077 594.56 79.1477 602 71.9477C610.64 63.5477 614.48 52.6277 614.48 41.9477C614.48 29.5877 609.56 19.0277 602 11.7077C593.96 3.90771 583.52 0.0677099 571.04 0.0677099ZM570.92 17.1077C578.24 17.1077 584.6 20.1077 588.56 23.9477C592.16 27.5477 595.52 33.6677 595.52 41.9477C595.52 51.1877 591.68 56.8277 588.56 59.8277C584.72 63.6677 578.96 66.6677 570.8 66.6677C564.56 66.6677 558.8 64.9877 553.64 60.0677C548.72 55.2677 546.32 49.3877 546.32 42.0677C546.32 33.1877 549.92 27.3077 553.4 23.9477C557.72 19.6277 563.96 17.1077 570.92 17.1077ZM666.749 53.1077H686.069C684.509 58.9877 680.909 62.1077 680.309 62.5877C678.509 64.1477 674.309 66.9077 666.389 66.9077C660.269 66.9077 654.869 65.4677 650.189 60.6677C646.829 57.3077 643.469 51.4277 643.469 42.3077C643.469 34.8677 645.869 28.0277 650.309 23.3477C654.149 19.2677 659.549 16.8677 666.869 16.8677C671.429 16.8677 675.509 18.0677 679.109 20.7077C682.229 22.9877 684.629 26.2277 686.189 29.3477L702.869 20.3477C699.989 15.3077 695.309 9.66771 689.909 6.06771C682.469 1.14771 674.069 0.0677099 667.469 0.0677099C657.989 0.0677099 645.869 1.50771 636.029 11.7077C629.309 18.5477 624.509 28.9877 624.509 42.0677C624.509 58.0277 631.589 67.7477 636.269 72.5477C645.629 82.1477 655.949 83.7077 665.549 83.7077C675.029 83.7077 685.229 82.0277 694.109 72.7877C702.989 63.5477 706.469 48.7877 706.469 39.0677V38.2277H666.749V53.1077ZM735.102 81.9077H753.582V44.5877L782.262 1.86771H760.422L744.342 26.7077L728.262 1.86771H706.422L735.102 44.5877V81.9077ZM12.76 133.868V213.908H38.68C45.4 213.908 59.2 213.068 70.24 201.908C76.84 195.308 81.16 186.188 81.16 173.588C81.16 161.108 76.72 151.748 69.64 144.908C59.8 135.428 48.64 133.868 38.08 133.868H12.76ZM31.24 149.468H36.16C41.8 149.468 49.6 150.308 55.6 156.308C58.72 159.428 62.2 164.948 62.2 173.588C62.2 182.468 58.72 189.308 54.4 192.908C48.4 197.948 40 198.308 36.16 198.308H31.24V149.468ZM94.9084 133.868V213.908H113.388V182.348L134.988 213.908H157.548L132.948 181.148C137.388 180.068 141.348 177.668 144.108 175.028C149.268 169.988 150.348 163.748 150.348 158.708C150.348 149.828 146.748 144.068 143.388 140.828C139.548 137.228 133.188 133.868 122.988 133.868H94.9084ZM113.388 148.268H117.708C120.108 148.268 124.908 148.508 127.908 150.788C129.468 151.988 131.628 154.388 131.628 158.948C131.628 162.908 129.948 165.428 128.628 166.748C125.508 169.868 120.948 170.228 117.588 170.228H113.388V148.268ZM168.159 133.868V213.908H186.639V133.868H168.159ZM196.199 133.868L230.159 213.908H242.639L276.599 133.868H256.679L236.399 185.108L216.119 133.868H196.199ZM331.047 133.868H285.807V213.908H331.047V198.308H304.287V180.548H329.727V164.948H304.287V149.468H331.047V133.868ZM364.521 213.908V162.068L407.961 213.908H424.041V133.868H405.561V185.468L362.121 133.868H346.041V213.908H364.521ZM469.557 133.868V213.908H499.677C504.597 213.908 514.197 213.428 520.797 207.068C523.917 203.948 527.037 198.908 527.037 190.868C527.037 183.788 524.517 179.228 521.877 176.588C518.997 173.708 514.677 171.788 510.837 171.188C512.757 170.348 515.517 168.668 517.557 165.308C519.717 161.828 520.197 158.228 520.197 155.108C520.197 151.628 519.597 144.908 514.437 139.988C508.197 134.108 498.357 133.868 494.037 133.868H469.557ZM487.797 148.268H490.677C494.037 148.268 497.637 148.268 500.277 150.308C501.717 151.388 503.397 153.548 503.397 157.028C503.397 160.508 501.837 162.908 500.157 164.108C497.517 166.028 493.317 166.388 490.797 166.388H487.797V148.268ZM487.797 180.068H492.837C496.557 180.068 502.797 180.068 506.037 183.068C507.237 184.148 508.557 186.308 508.557 189.548C508.557 192.428 507.597 194.708 505.917 196.268C502.557 199.388 496.917 199.508 492.237 199.508H487.797V180.068ZM554.75 213.908H573.23V176.588L601.91 133.868H580.07L563.99 158.708L547.91 133.868H526.07L554.75 176.588V213.908ZM657.138 133.868H638.658V213.908H657.138V179.948H689.058V213.908H707.538V133.868H689.058V164.348H657.138V133.868ZM792.706 133.868H774.226V180.788C774.226 184.268 773.986 190.148 770.026 194.228C766.786 197.708 762.346 198.428 758.866 198.428C755.386 198.428 750.946 197.708 747.706 194.228C743.746 190.148 743.506 184.268 743.506 180.788V133.868H725.026V181.268C725.026 188.948 725.986 198.428 733.906 206.588C741.586 214.508 750.466 215.708 758.866 215.708C767.266 215.708 776.146 214.508 783.826 206.588C791.746 198.428 792.706 188.948 792.706 181.268V133.868ZM824.981 213.908L831.341 166.148L851.381 213.908H857.861L877.901 166.148L884.261 213.908H902.741L889.901 133.868H874.541L854.621 181.748L834.701 133.868H819.341L806.501 213.908H824.981ZM969.55 213.908H988.75L957.19 133.868H940.27L907.99 213.908H927.19L933.31 198.788H963.55L969.55 213.908ZM938.71 184.628L948.67 157.748L958.51 184.628H938.71ZM1016.2 213.908V162.068L1059.64 213.908H1075.72V133.868H1057.24V185.468L1013.8 133.868H997.721V213.908H1016.2ZM1093.59 133.868V213.908H1112.07V133.868H1093.59ZM1175.39 149.468V133.868H1122.11V149.468H1139.51V213.908H1157.99V149.468H1175.39ZM1208.77 213.908H1227.25V176.588L1255.93 133.868H1234.09L1218.01 158.708L1201.93 133.868H1180.09L1208.77 176.588V213.908ZM1254.06 204.908C1254.06 211.028 1258.86 215.828 1264.98 215.828C1271.1 215.828 1275.9 211.028 1275.9 204.908C1275.9 198.788 1271.1 193.988 1264.98 193.988C1258.86 193.988 1254.06 198.788 1254.06 204.908Z" fill="white"/>
</g>
<defs>
<filter id="filter0_d_180_21" x="0.960022" y="0.0678711" width="1278.94" height="223.76" filterUnits="userSpaceOnUse" color-interpolation-filters="sRGB">
<feFlood flood-opacity="0" result="BackgroundImageFix"/>
<feColorMatrix in="SourceAlpha" type="matrix" values="0 0 0 0 0 0 0 0 0 0 0 0 0 0 0 0 0 0 127 0" result="hardAlpha"/>
<feOffset dy="4"/>
<feGaussianBlur stdDeviation="2"/>
<feComposite in2="hardAlpha" operator="out"/>
<feColorMatrix type="matrix" values="0 0 0 0 0 0 0 0 0 0 0 0 0 0 0 0 0 0 0.25 0"/>
<feBlend mode="normal" in2="BackgroundImageFix" result="effect1_dropShadow_180_21"/>
<feBlend mode="normal" in="SourceGraphic" in2="effect1_dropShadow_180_21" result="shape"/>
</filter>
</defs>
</svg>
